g Brow
v 0.0232789 1.421845 0.1168952
v 0.0186349 1.422079 0.1184112
v 0.0236529 1.426398 0.1173402
v 0.0300729 1.427317 0.1155002
v 0.0296269 1.421529 0.1145082
v 0.0361727 1.421348 0.1118823
v 0.0367067 1.426845 0.112601
v 0.04296345 1.420603 0.1088612
v 0.04370194 1.425837 0.1091655
v 0.05182883 1.423728 0.1047792
v 0.05134806 1.419188 0.104514
v 0.05839128 1.421278 0.1005179
v 0.05782428 1.417634 0.1003028
v 0.06453237 1.417636 0.09517241
v 0.06409837 1.416182 0.09500241
v 0.0695499 1.414229 0.08919118
v -0.02327889 1.421845 0.1168952
v -0.02365289 1.426398 0.1173402
v -0.01863489 1.422079 0.1184112
v -0.03007289 1.427317 0.1155002
v -0.02962689 1.421624 0.1145082
v -0.03617269 1.421242 0.1118823
v -0.03670669 1.426845 0.112601
v -0.04296344 1.420603 0.1088612
v -0.04370192 1.425837 0.1091655
v -0.05182882 1.423728 0.1047792
v -0.05134805 1.419188 0.104514
v -0.05839127 1.421278 0.1005179
v -0.05782427 1.417634 0.1003028
v -0.06453236 1.417636 0.09517241
v -0.06409836 1.416182 0.09500241
v -0.06954989 1.414229 0.08919118
vt 0.175357 0.9664821
vt 0.1603486 0.9655977
vt 0.1747185 0.9833519
vt 0.1975799 0.9884748
vt 0.1983185 0.9698592
vt 0.2239872 0.9719821
vt 0.2233257 0.9880748
vt 0.2462743 0.9726587
vt 0.2491031 0.986634
vt 0.2668008 0.9836282
vt 0.2662679 0.9722
vt 0.286606 0.9797665
vt 0.285082 0.9709821
vt 0.3107413 0.9736519
vt 0.3105184 0.9692977
vt 0.3383184 0.9652977
vt 0.175357 0.9664821
vt 0.1747185 0.9833519
vt 0.1603486 0.9655977
vt 0.1975799 0.9884748
vt 0.1983185 0.9698592
vt 0.2239872 0.9719821
vt 0.2233257 0.9880748
vt 0.2462743 0.9726587
vt 0.2491031 0.986634
vt 0.2668008 0.9836282
vt 0.2662679 0.9722
vt 0.286606 0.9797665
vt 0.285082 0.9709821
vt 0.3107413 0.9736519
vt 0.3105184 0.9692977
vt 0.3383184 0.9652977
vn 0.3105436 -0.1369877 0.9406365
vn 0.302826 -0.1173121 0.9457982
vn 0.3105436 -0.1369877 0.9406365
vn 0.3443848 -0.1626349 0.9246345
vn 0.3443848 -0.1626349 0.9246345
vn 0.3879216 -0.1520656 0.9090616
vn 0.3879216 -0.1520656 0.9090616
vn 0.4248956 -0.1288966 0.8960186
vn 0.4248956 -0.1288966 0.8960186
vn 0.4761569 -0.1361549 0.8687557
vn 0.4761569 -0.1361549 0.8687557
vn 0.5450988 -0.1889429 0.8168035
vn 0.5450988 -0.188943 0.8168035
vn 0.6091211 -0.2681224 0.7463793
vn 0.6091211 -0.2681224 0.7463793
vn 0.6351815 -0.3079864 0.7082999
vn -0.3105381 -0.1369855 0.9406387
vn -0.3105381 -0.1369855 0.9406387
vn -0.3028177 -0.1173088 0.9458013
vn -0.3443848 -0.1626348 0.9246345
vn -0.3443848 -0.1626348 0.9246345
vn -0.3879212 -0.1520656 0.9090617
vn -0.3879212 -0.1520656 0.9090617
vn -0.4248896 -0.1288948 0.8960217
vn -0.4248896 -0.1288948 0.8960217
vn -0.4761537 -0.1361541 0.8687576
vn -0.4761537 -0.136154 0.8687575
vn -0.5451012 -0.1889436 0.8168018
vn -0.5451012 -0.1889437 0.8168018
vn -0.6091185 -0.2681203 0.746382
vn -0.6091186 -0.2681203 0.746382
vn -0.6351742 -0.3079816 0.7083086
g Brow_0
f 3/3/3 2/2/2 1/1/1
f 4/4/4 3/3/3 1/1/1
f 5/5/5 4/4/4 1/1/1
f 5/5/5 6/6/6 4/4/4
f 6/6/6 7/7/7 4/4/4
f 6/6/6 8/8/8 7/7/7
f 8/8/8 9/9/9 7/7/7
f 9/9/9 8/8/8 10/10/10
f 8/8/8 11/11/11 10/10/10
f 12/12/12 10/10/10 11/11/11
f 13/13/13 12/12/12 11/11/11
f 14/14/14 12/12/12 13/13/13
f 15/15/15 14/14/14 13/13/13
f 15/15/15 16/16/16 14/14/14
f 19/19/19 18/18/18 17/17/17
f 18/18/18 20/20/20 17/17/17
f 20/20/20 21/21/21 17/17/17
f 22/22/22 21/21/21 20/20/20
f 23/23/23 22/22/22 20/20/20
f 24/24/24 22/22/22 23/23/23
f 25/25/25 24/24/24 23/23/23
f 24/24/24 25/25/25 26/26/26
f 27/27/27 24/24/24 26/26/26
f 26/26/26 28/28/28 27/27/27
f 28/28/28 29/29/29 27/27/27
f 28/28/28 30/30/30 29/29/29
f 30/30/30 31/31/31 29/29/29
f 32/32/32 31/31/31 30/30/30
