g EffectMesh
v 0.1695223 0.8474514 0.02250095
v 0.0779238 1.039724 0.05101649
v 0 1.037283 -0.002177184
v -0.002942574 0.8472178 -0.1124906
v 0.2757658 0.6195213 -0.01025801
v 0.1133282 0.7982222 0.1406961
v -0.005880753 0.6195517 -0.2106526
v 0.05424086 1.037642 0.1250199
v -0.05424082 1.037642 0.1250199
v -0.1038056 0.8473449 0.1407001
v 0.09540544 1.135281 -0.00167326
v 0 1.183298 -0.05665419
v 0.1039635 1.18 -0.04974676
v 0 1.271046 -0.03721843
v 0.0647469 1.267068 -0.002287667
v -0.1775952 0.8474512 0.02249629
v -0.25321 0.6195213 -0.01025799
v -0.002942574 0.8472178 -0.1124906
v -0.005880753 0.6195517 -0.2106526
v 0 1.037283 -0.002177184
v -0.0779238 1.039724 0.05101649
v -0.1038056 0.8473449 0.1407001
v -0.09540544 1.135281 -0.00167326
v 0 1.183298 -0.05665419
v -0.1039635 1.18 -0.04974676
v -0.0647469 1.267068 -0.002287667
v 0 1.271046 -0.03721843
v -0.1208253 1.230812 -0.004368098
v -0.06663818 1.24277 0.0656921
v -0.105303 1.167507 0.04574364
v -0.06409856 1.164357 0.1317357
v 0.06409857 1.164357 0.1317357
v 0.06206025 1.244863 0.06296127
v -0.0779238 1.039724 0.05101649
v -0.105303 1.167507 0.04574364
v -0.05424082 1.037642 0.1250199
v -0.09540544 1.135281 -0.00167326
v -0.1766319 1.082347 0.03570002
v -0.2211724 1.088385 -0.003652198
v -0.1208253 1.230812 -0.004368098
v 0.105303 1.167507 0.04574364
v 0.06206025 1.244863 0.06296127
v 0.1208253 1.230812 -0.004368098
v 0.1208253 1.230812 -0.004368098
v 0.2211724 1.088385 -0.003652198
v 0.1766319 1.082347 0.03570002
v 0.105303 1.167507 0.04574364
v 0.0779238 1.039724 0.05101649
v 0.09540544 1.135281 -0.00167326
v 0.05424086 1.037642 0.1250199
v -0.06409856 1.164357 0.1317357
v -0.09540544 1.135281 -0.00167326
v -0.1438612 1.064093 -0.002281644
v -0.1766319 1.082347 0.03570002
v -0.105303 1.167507 0.04574364
v -0.1811942 1.069075 -0.03933067
v -0.1438612 1.064093 -0.002281644
v -0.09540544 1.135281 -0.00167326
v -0.1039635 1.18 -0.04974676
v -0.2211724 1.088385 -0.003652198
v -0.1811942 1.069075 -0.03933067
v -0.1039635 1.18 -0.04974676
v -0.1208253 1.230812 -0.004368098
v 0.0647469 1.267068 -0.002287667
v 0.1208253 1.230812 -0.004368098
v 0.2211724 1.088385 -0.003652198
v 0.1208253 1.230812 -0.004368098
v 0.1039635 1.18 -0.04974676
v 0.1811942 1.069075 -0.03933067
v 0.1811942 1.069075 -0.03933067
v 0.1039635 1.18 -0.04974676
v 0.09540544 1.135281 -0.00167326
v 0.1438612 1.064093 -0.002281644
v 0.09540544 1.135281 -0.00167326
v 0.105303 1.167507 0.04574364
v 0.1766319 1.082347 0.03570002
v 0.1438612 1.064093 -0.002281644
vt 0.625 0.8125
vt 0.624653 0.795017
vt 0.5 0.714313
vt 0.5 0.75
vt 0.625 0.8125
vt 0.625 1
vt 0.5 0.75
vt 0.625 0.997733
vt 0.625 0.997733
vt 0.625 1
vt 0.625 0.5
vt 0.5 0.5
vt 0.625 0.5
vt 0.5 0.5
vt 0.625 0.4375
vt 0.625 0.8125
vt 0.625 0.8125
vt 0.5 0.75
vt 0.5 0.75
vt 0.5 0.714313
vt 0.624653 0.795017
vt 0.625 1
vt 0.625 0.5
vt 0.5 0.5
vt 0.625 0.5
vt 0.625 0.4375
vt 0.5 0.5
vt 0.625 0.411536
vt 0.625 0.3205775
vt 0.765625 0.288309
vt 0.625 0.25
vt 0.625 0.25
vt 0.625 0.324398
vt 0.812274 0.034044
vt 0.75 0.25
vt 0.625 0.02775
vt 0.84375 0.25
vt 1 1
vt 0 1
vt 0 0.126383
vt 0.765625 0.288309
vt 0.625 0.324398
vt 0.625 0.411536
vt 0 0.126383
vt 0 1
vt 1 1
vt 0.75 0.25
vt 0.812274 0.034044
vt 0.84375 0.25
vt 0.625 0.02775
vt 0.625 0.25
vt 0.910826 0.332346
vt 0.000928 0.319569
vt 0.003712 0
vt 1 0
vt 1 0
vt 1 1
vt 0.458182 0.729091
vt 0 0.5
vt 1 0
vt 1 1
vt 0 1
vt 0 0
vt 0.625 0.4375
vt 0.625 0.411536
vt 1 0
vt 0 0
vt 0 1
vt 1 1
vt 1 0
vt 0 0.5
vt 0.458182 0.729091
vt 1 1
vt 0.910826 0.332346
vt 1 0
vt 0.003712 0
vt 0.000928 0.319569
vn 0.7682256 0.4096254 -0.4919721
vn 0.9166473 0.2439553 -0.3166125
vn 0.003158336 0.2420471 -0.9702593
vn 0.001387151 0.4234552 -0.905916
vn 0.6261265 0.3663112 -0.6883182
vn 0.5520739 0.2275912 0.8021325
vn 0.0002337371 0.4028374 -0.9152715
vn 0.4073789 0.09816921 0.9079677
vn -0.3748449 0.1000648 0.9216714
vn -0.4630841 0.2028455 0.8627901
vn 0.05756658 -0.6973338 -0.714431
vn 0 -0.251256 -0.9679206
vn 0.3066468 0.1074716 -0.9457366
vn 0 0.4061939 -0.9137869
vn 0.4956233 0.7212974 -0.483826
vn -0.7776427 0.3829081 -0.4986516
vn -0.6453493 0.3258435 -0.6909053
vn 0.001387151 0.4234552 -0.905916
vn 0.0002337371 0.4028374 -0.9152715
vn 0.003158336 0.2420471 -0.9702593
vn -0.8977666 0.263823 -0.3527215
vn -0.4630841 0.2028455 0.8627901
vn -0.05756679 -0.6973338 -0.714431
vn 0 -0.251256 -0.9679206
vn -0.306647 0.1074718 -0.9457365
vn -0.4935944 0.718732 -0.4896824
vn 0 0.4061939 -0.9137869
vn -0.7942205 0.6035274 -0.07048596
vn -0.2500481 0.6328794 0.7327617
vn -0.7617432 0.09470758 0.6409194
vn -0.3695436 0.2200169 0.9027902
vn 0.3764852 0.2187389 0.900229
vn 0.2466349 0.6364662 0.7308092
vn -0.8977666 0.263823 -0.3527215
vn -0.7617432 0.09470758 0.6409194
vn -0.3748449 0.1000648 0.9216714
vn -0.05756679 -0.6973338 -0.714431
vn -0.3098224 0.1857544 0.9324726
vn -0.8248528 0.5545816 -0.1098056
vn -0.7942205 0.6035274 -0.07048596
vn 0.7589459 0.1056356 0.6425281
vn 0.2466349 0.6364662 0.7308092
vn 0.7937656 0.6052779 -0.05979012
vn 0.7937656 0.6052779 -0.05979012
vn 0.8248526 0.5545816 -0.1098058
vn 0.3098223 0.1857543 0.9324729
vn 0.7589459 0.1056356 0.6425281
vn 0.9166473 0.2439553 -0.3166125
vn 0.05756658 -0.6973338 -0.714431
vn 0.4073789 0.09816921 0.9079677
vn -0.3695436 0.2200169 0.9027902
vn -0.05756679 -0.6973338 -0.714431
vn 0.783154 -0.6116895 -0.1118289
vn -0.3098224 0.1857544 0.9324726
vn -0.7617432 0.09470758 0.6409194
vn -0.2573504 0.1386768 -0.9563156
vn 0.783154 -0.6116895 -0.1118289
vn -0.05756679 -0.6973338 -0.714431
vn -0.306647 0.1074718 -0.9457365
vn -0.8248528 0.5545816 -0.1098056
vn -0.2573504 0.1386768 -0.9563156
vn -0.306647 0.1074718 -0.9457365
vn -0.7942205 0.6035274 -0.07048596
vn 0.4956233 0.7212974 -0.483826
vn 0.7937656 0.6052779 -0.05979012
vn 0.8248526 0.5545816 -0.1098058
vn 0.7937656 0.6052779 -0.05979012
vn 0.3066468 0.1074716 -0.9457366
vn 0.2573501 0.1386766 -0.9563157
vn 0.2573501 0.1386766 -0.9563157
vn 0.3066468 0.1074716 -0.9457366
vn 0.05756658 -0.6973338 -0.714431
vn -0.783154 -0.6116894 -0.1118288
vn 0.05756658 -0.6973338 -0.714431
vn 0.7589459 0.1056356 0.6425281
vn 0.3098223 0.1857543 0.9324729
vn -0.783154 -0.6116894 -0.1118288
g EffectMesh_0
f 3/3/3 2/2/2 1/1/1
f 4/4/4 3/3/3 1/1/1
f 1/1/1 5/5/5 4/4/4
f 6/6/6 5/5/5 1/1/1
f 1/1/1 2/2/2 6/6/6
f 5/5/5 7/7/7 4/4/4
f 2/2/2 8/8/8 6/6/6
f 8/8/8 9/9/9 6/6/6
f 9/9/9 10/10/10 6/6/6
f 11/11/11 2/2/2 3/3/3
f 12/12/12 11/11/11 3/3/3
f 13/13/13 11/11/11 12/12/12
f 13/13/13 12/12/12 14/14/14
f 13/13/13 14/14/14 15/15/15
f 17/17/17 10/10/10 16/16/16
f 17/17/17 16/16/16 18/18/18
f 19/19/19 17/17/17 18/18/18
f 20/20/20 18/18/18 16/16/16
f 21/21/21 20/20/20 16/16/16
f 21/21/21 16/16/16 22/22/22
f 9/9/9 21/21/21 22/22/22
f 20/20/20 21/21/21 23/23/23
f 12/12/12 20/20/20 23/23/23
f 23/23/23 25/25/25 24/24/24
f 14/14/14 24/24/24 25/25/25
f 27/27/27 25/25/25 26/26/26
f 25/25/25 28/28/28 26/26/26
f 29/29/29 26/26/26 28/28/28
f 29/29/29 28/28/28 30/30/30
f 30/30/30 31/31/31 29/29/29
f 31/31/31 32/32/32 29/29/29
f 32/32/32 33/33/33 29/29/29
f 31/31/31 35/35/35 34/34/34
f 36/36/36 31/31/31 34/34/34
f 35/35/35 37/37/37 34/34/34
f 39/39/39 38/38/38 30/30/30
f 40/40/40 39/39/39 30/30/30
f 42/42/42 32/32/32 41/41/41
f 41/41/41 43/43/43 42/42/42
f 45/45/45 44/44/44 41/41/41
f 46/46/46 45/45/45 41/41/41
f 48/48/48 47/47/47 32/32/32
f 49/49/49 47/47/47 48/48/48
f 50/50/50 48/48/48 32/32/32
f 50/50/50 32/32/32 51/51/51
f 36/36/36 50/50/50 51/51/51
f 54/54/54 53/53/53 52/52/52
f 55/55/55 54/54/54 52/52/52
f 58/58/58 57/57/57 56/56/56
f 59/59/59 58/58/58 56/56/56
f 62/62/62 61/61/61 60/60/60
f 63/63/63 62/62/62 60/60/60
f 65/65/65 13/13/13 64/64/64
f 65/65/65 64/64/64 33/33/33
f 68/68/68 67/67/67 66/66/66
f 69/69/69 68/68/68 66/66/66
f 72/72/72 71/71/71 70/70/70
f 73/73/73 72/72/72 70/70/70
f 76/76/76 75/75/75 74/74/74
f 77/77/77 76/76/76 74/74/74
