g EyeStar
v 0.0416842 1.387371 0.09595174
v 0.04352471 1.394113 0.09642168
v 0.04327518 1.387345 0.09555449
v 0.04487484 1.387318 0.09515508
v 0.04872184 1.381566 0.09341383
v 0.05304643 1.381544 0.09234092
v 0.04865865 1.379942 0.09320658
v 0.04878495 1.383188 0.09362085
v 0.04318947 1.38502 0.09525663
v 0.04654299 1.385002 0.09442454
v 0.04641738 1.381578 0.09398554
v 0.04306317 1.381595 0.09481771
v 0.04293688 1.378169 0.09437879
v 0.04629044 1.378152 0.09354688
v 0.03983591 1.385037 0.09608853
v 0.03970896 1.381611 0.09564988
v 0.03958336 1.378187 0.09521089
v 0.04487484 1.387318 0.09515508
v 0.04318947 1.38502 0.09525663
v 0.04327518 1.387345 0.09555449
v 0.0416842 1.387371 0.09595174
v 0.03983591 1.385037 0.09608853
v 0.04287039 1.376366 0.09414776
v 0.04293688 1.378169 0.09437879
v 0.04459467 1.376376 0.09372263
v 0.04115525 1.376355 0.09457064
v 0.03958336 1.378187 0.09521089
v 0.03775778 1.381621 0.09613395
v 0.03970896 1.381611 0.09564988
v 0.03769802 1.379911 0.09591394
v 0.03781749 1.383331 0.09635377
v 0.04872184 1.381566 0.09341383
v 0.04641738 1.381578 0.09398554
v 0.04654299 1.385002 0.09442454
v 0.04878495 1.383188 0.09362085
v 0.04865865 1.379942 0.09320658
v 0.04629044 1.378152 0.09354688
v 0.04287039 1.376366 0.09414776
v 0.04260164 1.369076 0.09321374
v 0.04115525 1.376355 0.09457064
v 0.04459467 1.376376 0.09372263
v 0.03775778 1.381621 0.09613395
v 0.03307991 1.381645 0.09729451
v 0.03781749 1.383331 0.09635377
v 0.03769802 1.379911 0.09591394
v -0.0416842 1.387371 0.09595174
v -0.04327518 1.387345 0.09555449
v -0.04352471 1.394113 0.09642168
v -0.04487485 1.387318 0.09515508
v -0.04872184 1.381566 0.09341383
v -0.04865865 1.379942 0.09320658
v -0.05304643 1.381544 0.09234092
v -0.04878495 1.383188 0.09362085
v -0.04318947 1.38502 0.09525663
v -0.04306317 1.381595 0.09481771
v -0.04641738 1.381578 0.09398554
v -0.04654299 1.385002 0.09442454
v -0.04293688 1.378169 0.09437879
v -0.04629044 1.378152 0.09354688
v -0.03983591 1.385037 0.09608853
v -0.03970896 1.381611 0.09564988
v -0.03958336 1.378187 0.09521089
v -0.04487485 1.387318 0.09515508
v -0.04318947 1.38502 0.09525663
v -0.04327518 1.387345 0.09555449
v -0.0416842 1.387371 0.09595174
v -0.03983591 1.385037 0.09608853
v -0.04865865 1.379942 0.09320658
v -0.04641738 1.381578 0.09398554
v -0.04872184 1.381566 0.09341383
v -0.04654299 1.385002 0.09442454
v -0.04878495 1.383188 0.09362085
v -0.03781749 1.383331 0.09635377
v -0.03970896 1.381611 0.09564988
v -0.03775778 1.381621 0.09613395
v -0.03958336 1.378187 0.09521089
v -0.03769802 1.379911 0.09591394
v -0.04115525 1.376355 0.09457064
v -0.04293688 1.378169 0.09437879
v -0.04287039 1.376366 0.09414776
v -0.04629044 1.378152 0.09354688
v -0.04459467 1.376376 0.09372263
v -0.04287039 1.376366 0.09414776
v -0.04115525 1.376355 0.09457064
v -0.04260164 1.369076 0.09321374
v -0.04459467 1.376376 0.09372263
v -0.03775778 1.381621 0.09613395
v -0.03781749 1.383331 0.09635377
v -0.03307991 1.381645 0.09729451
v -0.03769802 1.379911 0.09591394
vt 0.01183862 0.02459079
vt 0.01385097 0.03302488
vt 0.01385097 0.02459079
vt 0.01587235 0.02459079
vt 0.02094034 0.01755156
vt 0.02642435 0.01755156
vt 0.02094582 0.01554546
vt 0.02093695 0.01955444
vt 0.01385097 0.02173483
vt 0.01808042 0.02173483
vt 0.01808042 0.01755156
vt 0.01385097 0.01755156
vt 0.01385097 0.01322802
vt 0.01808042 0.01322802
vt 0.00951146 0.02173483
vt 0.00951146 0.01755156
vt 0.00951146 0.01322802
vt 0.01587235 0.02459079
vt 0.01385097 0.02173483
vt 0.01385097 0.02459079
vt 0.01183862 0.02459079
vt 0.00951146 0.02173483
vt 0.01385097 0.01095737
vt 0.01385097 0.01322802
vt 0.01604181 0.01095737
vt 0.01166697 0.01095737
vt 0.00951146 0.01322802
vt 0.007037191 0.01755156
vt 0.00951146 0.01755156
vt 0.007034196 0.01541426
vt 0.007044716 0.01968319
vt 0.02094034 0.01755156
vt 0.01808042 0.01755156
vt 0.01808042 0.02173483
vt 0.02093695 0.01955444
vt 0.02094582 0.01554546
vt 0.01808042 0.01322802
vt 0.01385097 0.01095737
vt 0.01385097 0.001938171
vt 0.01166697 0.01095737
vt 0.01604181 0.01095737
vt 0.007037191 0.01755156
vt 0.001105367 0.01755156
vt 0.007044716 0.01968319
vt 0.007034196 0.01541426
vt 0.01183862 0.02459079
vt 0.01385097 0.02459079
vt 0.01385097 0.03302488
vt 0.01587235 0.02459079
vt 0.02094034 0.01755156
vt 0.02094582 0.01554546
vt 0.02642435 0.01755156
vt 0.02093695 0.01955444
vt 0.01385097 0.02173483
vt 0.01385097 0.01755156
vt 0.01808042 0.01755156
vt 0.01808042 0.02173483
vt 0.01385097 0.01322802
vt 0.01808042 0.01322802
vt 0.00951146 0.02173483
vt 0.00951146 0.01755156
vt 0.00951146 0.01322802
vt 0.01587235 0.02459079
vt 0.01385097 0.02173483
vt 0.01385097 0.02459079
vt 0.01183862 0.02459079
vt 0.00951146 0.02173483
vt 0.02094582 0.01554546
vt 0.01808042 0.01755156
vt 0.02094034 0.01755156
vt 0.01808042 0.02173483
vt 0.02093695 0.01955444
vt 0.007044716 0.01968319
vt 0.00951146 0.01755156
vt 0.007037191 0.01755156
vt 0.00951146 0.01322802
vt 0.007034196 0.01541426
vt 0.01166697 0.01095737
vt 0.01385097 0.01322802
vt 0.01385097 0.01095737
vt 0.01808042 0.01322802
vt 0.01604181 0.01095737
vt 0.01385097 0.01095737
vt 0.01166697 0.01095737
vt 0.01385097 0.001938171
vt 0.01604181 0.01095737
vt 0.007037191 0.01755156
vt 0.007044716 0.01968319
vt 0.001105367 0.01755156
vt 0.007034196 0.01541426
vn 0.2380579 -0.1320656 0.9622303
vn 0.2380591 -0.1320662 0.9622298
vn 0.2380591 -0.1320662 0.9622298
vn 0.2380604 -0.1320669 0.9622295
vn 0.2380551 -0.1320717 0.9622301
vn 0.2380551 -0.1320717 0.9622301
vn 0.2380478 -0.1320805 0.9622307
vn 0.2380624 -0.1320628 0.9622296
vn 0.238064 -0.1320703 0.9622282
vn 0.2380617 -0.1320715 0.9622285
vn 0.2380574 -0.1320676 0.9622301
vn 0.2380595 -0.1320686 0.9622295
vn 0.2380551 -0.1320668 0.9622308
vn 0.2380531 -0.1320637 0.9622317
vn 0.2380663 -0.1320692 0.9622277
vn 0.2380617 -0.1320695 0.9622288
vn 0.2380569 -0.1320698 0.9622299
vn 0.2380627 -0.1320637 0.9622294
vn 0.2380596 -0.1320648 0.9622299
vn 0.2380595 -0.1320649 0.9622299
vn 0.2380565 -0.132066 0.9622306
vn 0.2380565 -0.132066 0.9622306
vn 0.2380513 -0.1320595 0.9622327
vn 0.2380513 -0.1320596 0.9622327
vn 0.2380492 -0.1320634 0.9622327
vn 0.2380533 -0.1320558 0.9622327
vn 0.2380533 -0.1320558 0.9622327
vn 0.2380554 -0.1320686 0.9622305
vn 0.2380554 -0.1320686 0.9622305
vn 0.2380565 -0.132074 0.9622295
vn 0.2380543 -0.1320633 0.9622315
vn 0.2380481 -0.1320678 0.9622325
vn 0.2380481 -0.1320678 0.9622325
vn 0.238038 -0.1320632 0.9622355
vn 0.238038 -0.1320632 0.9622355
vn 0.2380583 -0.1320724 0.9622293
vn 0.2380583 -0.1320724 0.9622293
vn 0.2380516 -0.1320639 0.9622321
vn 0.2380518 -0.132064 0.9622321
vn 0.2380834 -0.1320675 0.9622238
vn 0.2380204 -0.1320605 0.9622403
vn 0.2380407 -0.1320564 0.9622358
vn 0.2380407 -0.1320564 0.9622358
vn 0.238057 -0.1320675 0.9622303
vn 0.2380243 -0.1320453 0.9622413
vn -0.238053 -0.1320658 0.9622315
vn -0.2380549 -0.132066 0.962231
vn -0.2380549 -0.132066 0.962231
vn -0.2380568 -0.1320662 0.9622305
vn -0.2380591 -0.1320745 0.9622287
vn -0.238063 -0.1320897 0.9622256
vn -0.2380591 -0.1320744 0.9622287
vn -0.2380552 -0.1320592 0.9622318
vn -0.2380635 -0.1320702 0.9622283
vn -0.2380611 -0.1320693 0.962229
vn -0.2380562 -0.1320668 0.9622306
vn -0.2380556 -0.1320686 0.9622305
vn -0.2380586 -0.1320684 0.9622297
vn -0.2380567 -0.132065 0.9622307
vn -0.2380713 -0.1320718 0.9622261
vn -0.2380659 -0.1320719 0.9622274
vn -0.2380606 -0.1320719 0.9622287
vn -0.2380619 -0.1320633 0.9622296
vn -0.2380513 -0.1320604 0.9622326
vn -0.2380512 -0.1320604 0.9622326
vn -0.2380409 -0.1320575 0.9622356
vn -0.2380408 -0.1320575 0.9622356
vn -0.2380586 -0.1320724 0.9622292
vn -0.2380504 -0.1320691 0.9622316
vn -0.2380504 -0.1320691 0.9622316
vn -0.2380423 -0.1320657 0.9622341
vn -0.2380423 -0.1320658 0.9622341
vn -0.2380558 -0.1320646 0.9622309
vn -0.2380553 -0.1320692 0.9622304
vn -0.2380553 -0.1320692 0.9622304
vn -0.2380523 -0.1320558 0.962233
vn -0.2380547 -0.1320739 0.9622299
vn -0.2380523 -0.1320558 0.962233
vn -0.238049 -0.1320579 0.9622335
vn -0.2380491 -0.132058 0.9622335
vn -0.2380458 -0.1320601 0.962234
vn -0.2380458 -0.1320601 0.962234
vn -0.2380553 -0.1320653 0.9622309
vn -0.2380792 -0.1320648 0.9622251
vn -0.2380555 -0.1320653 0.9622309
vn -0.2380318 -0.1320658 0.9622366
vn -0.2380477 -0.1320606 0.9622335
vn -0.2380702 -0.1320753 0.962226
vn -0.2380478 -0.1320606 0.9622335
vn -0.2380253 -0.1320459 0.9622411
g EyeStar_0
f 3/3/3 2/2/2 1/1/1
f 4/4/4 2/2/2 3/3/3
f 7/7/7 6/6/6 5/5/5
f 5/5/5 6/6/6 8/8/8
f 11/11/11 10/10/10 9/9/9
f 12/12/12 11/11/11 9/9/9
f 12/12/12 13/13/13 11/11/11
f 13/13/13 14/14/14 11/11/11
f 9/9/9 15/15/15 12/12/12
f 15/15/15 16/16/16 12/12/12
f 17/17/17 13/13/13 12/12/12
f 16/16/16 17/17/17 12/12/12
f 19/19/19 10/10/10 18/18/18
f 20/20/20 19/19/19 18/18/18
f 20/20/20 21/21/21 19/19/19
f 21/21/21 22/22/22 19/19/19
f 14/14/14 24/24/24 23/23/23
f 25/25/25 14/14/14 23/23/23
f 23/23/23 24/24/24 26/26/26
f 24/24/24 27/27/27 26/26/26
f 17/17/17 29/29/29 28/28/28
f 30/30/30 17/17/17 28/28/28
f 29/29/29 22/22/22 31/31/31
f 28/28/28 29/29/29 31/31/31
f 34/34/34 33/33/33 32/32/32
f 35/35/35 34/34/34 32/32/32
f 32/32/32 33/33/33 36/36/36
f 33/33/33 37/37/37 36/36/36
f 40/40/40 39/39/39 38/38/38
f 38/38/38 39/39/39 41/41/41
f 44/44/44 43/43/43 42/42/42
f 42/42/42 43/43/43 45/45/45
f 48/48/48 47/47/47 46/46/46
f 48/48/48 49/49/49 47/47/47
f 52/52/52 51/51/51 50/50/50
f 52/52/52 50/50/50 53/53/53
f 56/56/56 55/55/55 54/54/54
f 57/57/57 56/56/56 54/54/54
f 58/58/58 55/55/55 56/56/56
f 59/59/59 58/58/58 56/56/56
f 60/60/60 54/54/54 55/55/55
f 61/61/61 60/60/60 55/55/55
f 62/62/62 61/61/61 55/55/55
f 58/58/58 62/62/62 55/55/55
f 57/57/57 64/64/64 63/63/63
f 64/64/64 65/65/65 63/63/63
f 66/66/66 65/65/65 64/64/64
f 67/67/67 66/66/66 64/64/64
f 59/59/59 69/69/69 68/68/68
f 69/69/69 70/70/70 68/68/68
f 69/69/69 71/71/71 70/70/70
f 71/71/71 72/72/72 70/70/70
f 67/67/67 74/74/74 73/73/73
f 74/74/74 75/75/75 73/73/73
f 74/74/74 76/76/76 75/75/75
f 76/76/76 77/77/77 75/75/75
f 76/76/76 79/79/79 78/78/78
f 79/79/79 80/80/80 78/78/78
f 79/79/79 81/81/81 80/80/80
f 81/81/81 82/82/82 80/80/80
f 85/85/85 84/84/84 83/83/83
f 85/85/85 83/83/83 86/86/86
f 89/89/89 88/88/88 87/87/87
f 89/89/89 87/87/87 90/90/90
